<?xml version="1.0" encoding="UTF-8"?>
<svg width="297mm" height="210mm" viewBox="0 0 1122 794" xmlns="http://www.w3.org/2000/svg">

    <!-- Parchment base -->
    <rect width="1122" height="794" fill="#f8fbff"/>

    <!-- Top header band (behind logo area) -->
    <rect x="11" y="11" width="1100" height="105" fill="#e3f2fd"/>
    <line x1="11" y1="116" x2="1111" y2="116" stroke="#0a4fa3" stroke-width="2"/>
    <line x1="11" y1="120" x2="1111" y2="120" stroke="#64b5f6" stroke-width="0.7"/>



    <!-- Outer border -->
    <rect x="11" y="11" width="1100" height="772" fill="none" stroke="#0a4fa3" stroke-width="2.5"/>
    <!-- Inner border -->
    <rect x="18" y="18" width="1086" height="758" fill="none" stroke="#64b5f6" stroke-width="1"/>
    <!-- Innermost thin -->
    <rect x="23" y="23" width="1076" height="748" fill="none" stroke="#90caf9" stroke-width="0.4"/>

    <!-- Corner ornaments -->
    <!-- TL -->
    <g transform="translate(11,11)">
        <rect x="-1" y="-1" width="46" height="46" fill="#e3f2fd"/>
        <circle cx="0" cy="0" r="19" fill="none" stroke="#0a4fa3" stroke-width="1.8"/>
        <circle cx="0" cy="0" r="12" fill="none" stroke="#64b5f6" stroke-width="1"/>
        <circle cx="0" cy="0" r="5" fill="#1565c0"/>
        <line x1="-19" y1="0" x2="19" y2="0" stroke="#1565c0" stroke-width="1"/>
        <line x1="0" y1="-19" x2="0" y2="19" stroke="#1565c0" stroke-width="1"/>
        <line x1="-13" y1="-13" x2="13" y2="13" stroke="#64b5f6" stroke-width="0.8"/>
        <line x1="13" y1="-13" x2="-13" y2="13" stroke="#64b5f6" stroke-width="0.8"/>
    </g>
    <!-- TR -->
    <g transform="translate(1111,11)">
        <rect x="-45" y="-1" width="46" height="46" fill="#e3f2fd"/>
        <circle cx="0" cy="0" r="19" fill="none" stroke="#0a4fa3" stroke-width="1.8"/>
        <circle cx="0" cy="0" r="12" fill="none" stroke="#64b5f6" stroke-width="1"/>
        <circle cx="0" cy="0" r="5" fill="#1565c0"/>
        <line x1="-19" y1="0" x2="19" y2="0" stroke="#1565c0" stroke-width="1"/>
        <line x1="0" y1="-19" x2="0" y2="19" stroke="#1565c0" stroke-width="1"/>
        <line x1="-13" y1="-13" x2="13" y2="13" stroke="#64b5f6" stroke-width="0.8"/>
        <line x1="13" y1="-13" x2="-13" y2="13" stroke="#64b5f6" stroke-width="0.8"/>
    </g>
    <!-- BL -->
    <g transform="translate(11,783)">
        <rect x="-1" y="-45" width="46" height="46" fill="#e3f2fd"/>
        <circle cx="0" cy="0" r="19" fill="none" stroke="#0a4fa3" stroke-width="1.8"/>
        <circle cx="0" cy="0" r="12" fill="none" stroke="#64b5f6" stroke-width="1"/>
        <circle cx="0" cy="0" r="5" fill="#1565c0"/>
        <line x1="-19" y1="0" x2="19" y2="0" stroke="#1565c0" stroke-width="1"/>
        <line x1="0" y1="-19" x2="0" y2="19" stroke="#1565c0" stroke-width="1"/>
        <line x1="-13" y1="-13" x2="13" y2="13" stroke="#64b5f6" stroke-width="0.8"/>
        <line x1="13" y1="-13" x2="-13" y2="13" stroke="#64b5f6" stroke-width="0.8"/>
    </g>
    <!-- BR -->
    <g transform="translate(1111,783)">
        <rect x="-45" y="-45" width="46" height="46" fill="#e3f2fd"/>
        <circle cx="0" cy="0" r="19" fill="none" stroke="#0a4fa3" stroke-width="1.8"/>
        <circle cx="0" cy="0" r="12" fill="none" stroke="#64b5f6" stroke-width="1"/>
        <circle cx="0" cy="0" r="5" fill="#1565c0"/>
        <line x1="-19" y1="0" x2="19" y2="0" stroke="#1565c0" stroke-width="1"/>
        <line x1="0" y1="-19" x2="0" y2="19" stroke="#1565c0" stroke-width="1"/>
        <line x1="-13" y1="-13" x2="13" y2="13" stroke="#64b5f6" stroke-width="0.8"/>
        <line x1="13" y1="-13" x2="-13" y2="13" stroke="#64b5f6" stroke-width="0.8"/>
    </g>

    <!-- Mid-edge diamonds -->
    <rect x="553" y="4" width="16" height="16" transform="rotate(45,561,12)" fill="#1565c0"/>
    <rect x="556" y="7" width="10" height="10" transform="rotate(45,561,12)" fill="#f8fbff"/>
    <rect x="553" y="776" width="16" height="16" transform="rotate(45,561,784)" fill="#1565c0"/>
    <rect x="556" y="779" width="10" height="10" transform="rotate(45,561,784)" fill="#f8fbff"/>
    <rect x="4" y="389" width="16" height="16" transform="rotate(45,12,397)" fill="#1565c0"/>
    <rect x="7" y="392" width="10" height="10" transform="rotate(45,12,397)" fill="#f8fbff"/>
    <rect x="1102" y="389" width="16" height="16" transform="rotate(45,1110,397)" fill="#1565c0"/>
    <rect x="1105" y="392" width="10" height="10" transform="rotate(45,1110,397)" fill="#f8fbff"/>

    <!-- Kalarippayattu crest watermark — replaces mandala -->
    <g opacity="0.07">
        <g transform="translate(351.0,241.5) scale(1.4634,1.4634)">
            <g transform="translate(0,244) scale(0.025,-0.025)" fill="#0b3d91" stroke="none">
                <path d="M2134 9067 c-12 -12 -24 -40 -27 -62 -8 -60 -19 -99 -29 -106 -5 -3 -9 -154 -10 -347 0 -330 0 -342 21 -377 15 -26 21 -53 21 -96 0 -63 15 -102 56 -152 18 -21 24 -41 24 -77 0 -29 6 -52 14 -59 8 -7 18 -26 21 -42 4 -16 15 -34 26 -39 10 -6 19 -21 19 -34 0 -15 22 -45 60 -84 46 -48 60 -69 60 -92 0 -19 5 -30 14 -30 16 0 26 -21 26 -56 0 -14 6 -24 14 -24 12 0 58 -59 101 -129 6 -9 59 -65 119 -126 60 -60 115 -124 122 -142 8 -18 24 -38 36 -44 13 -7 39 -28 58 -48 20 -20 50 -47 68 -61 18 -14 35 -35 39 -48 10 -41 222 -242 255 -242 6 0 38 -27 72 -60 59 -58 159 -140 171 -140 3 0 45 -38 93 -85 79 -78 85 -87 70 -99 -13 -9 -18 -27 -18 -58 0 -31 -6 -52 -20 -68 -12 -14 -20 -37 -20 -60 0 -22 -8 -48 -20 -63 -11 -14 -20 -32 -20 -41 0 -8 -9 -20 -20 -26 -17 -9 -20 -21 -20 -79 0 -53 -4 -71 -19 -85 -14 -13 -19 -37 -24 -112 -4 -63 -11 -101 -20 -112 -12 -13 -16 -55 -19 -179 -3 -134 -7 -165 -21 -181 -25 -27 -23 -112 3 -142 16 -19 20 -37 20 -97 0 -56 4 -75 15 -79 8 -4 15 -18 16 -33 2 -132 11 -192 30 -201 15 -8 19 -22 19 -60 0 -39 4 -52 20 -60 12 -7 20 -21 20 -38 0 -16 8 -32 20 -40 14 -8 20 -23 20 -48 0 -21 8 -47 20 -61 11 -14 20 -38 20 -54 0 -16 7 -32 18 -38 15 -9 12 -15 -30 -56 -26 -25 -52 -45 -58 -45 -6 0 -13 -6 -16 -14 -3 -8 -15 -17 -27 -20 -12 -3 -41 -23 -64 -46 -23 -22 -47 -40 -53 -40 -5 0 -19 -9 -30 -20 -11 -11 -33 -20 -50 -20 -24 0 -35 -7 -51 -34 -11 -18 -39 -46 -62 -62 -23 -16 -58 -46 -78 -66 -20 -21 -43 -38 -52 -38 -19 0 -36 -13 -101 -78 -40 -40 -44 -42 -60 -27 -9 9 -16 20 -16 25 0 16 -67 80 -84 80 -9 0 -25 9 -36 20 -11 11 -23 20 -26 20 -4 0 -17 10 -30 23 -40 38 -58 52 -87 64 -15 7 -27 17 -27 23 0 5 -7 10 -15 10 -8 0 -19 9 -25 20 -6 11 -21 20 -33 20 -13 0 -41 17 -65 40 -22 22 -50 40 -62 40 -11 0 -29 9 -40 20 -13 13 -33 20 -60 20 -41 0 -90 17 -90 32 0 4 -18 8 -40 8 -29 0 -42 5 -50 20 -14 26 -124 30 -138 4 -9 -16 -34 -33 -89 -59 -31 -15 -33 -18 -33 -71 0 -41 5 -63 20 -81 11 -14 20 -33 20 -42 0 -10 18 -33 40 -52 28 -24 40 -42 40 -62 0 -17 7 -30 17 -34 9 -4 33 -24 52 -45 19 -21 41 -38 48 -38 7 0 21 -9 30 -20 10 -11 21 -20 26 -20 5 0 43 -35 86 -79 42 -43 87 -82 100 -86 13 -4 29 -22 37 -40 7 -18 20 -35 29 -38 8 -4 15 -14 15 -23 0 -24 -52 -74 -78 -74 -14 0 -45 -23 -84 -60 -35 -35 -70 -60 -82 -60 -12 0 -27 -9 -34 -20 -7 -11 -21 -20 -32 -20 -11 0 -29 -9 -40 -20 -11 -11 -32 -20 -47 -20 -20 0 -38 -12 -63 -40 -19 -22 -43 -40 -52 -40 -10 0 -18 -4 -18 -9 0 -5 -17 -20 -37 -33 -20 -12 -49 -31 -63 -40 -14 -10 -36 -23 -50 -30 -14 -7 -31 -21 -38 -30 -7 -10 -22 -18 -33 -18 -10 0 -19 -5 -19 -10 0 -6 -12 -16 -27 -23 -42 -18 -83 -62 -83 -89 0 -14 -15 -36 -40 -58 -22 -19 -40 -39 -40 -43 0 -5 -9 -20 -20 -34 -11 -14 -20 -40 -20 -58 0 -38 -18 -95 -30 -95 -5 0 -10 -15 -12 -32 l-3 -33 -75 -3 c-52 -1 -78 -7 -86 -17 -6 -8 -24 -18 -40 -21 -18 -3 -40 -20 -58 -44 -28 -38 -29 -38 -102 -39 -60 -1 -77 -4 -94 -21 -11 -11 -29 -20 -40 -20 -10 0 -27 -12 -37 -26 -10 -15 -28 -36 -40 -49 -13 -12 -23 -29 -23 -37 0 -9 -9 -26 -19 -40 -12 -15 -21 -44 -23 -74 -3 -46 -5 -49 -33 -52 -16 -2 -35 -12 -43 -23 -8 -12 -25 -19 -45 -19 -21 0 -36 -7 -45 -20 -7 -11 -23 -20 -37 -20 -19 0 -28 -8 -39 -34 -8 -18 -19 -37 -25 -40 -6 -4 -11 -23 -11 -43 0 -26 -5 -36 -20 -40 -19 -5 -20 -14 -20 -162 l0 -156 31 -29 c17 -16 42 -47 55 -68 14 -21 35 -43 47 -47 13 -5 29 -16 36 -25 11 -13 36 -16 141 -16 114 0 129 2 145 20 10 11 29 20 42 20 16 0 47 24 101 80 l78 80 76 0 c55 0 79 4 88 15 7 8 30 20 51 25 22 6 39 15 39 21 0 5 20 29 45 53 43 41 46 46 48 102 l2 59 79 3 c60 2 85 8 104 22 41 33 84 25 108 -21 8 -16 30 -35 49 -43 19 -8 35 -20 35 -25 0 -6 5 -11 11 -11 6 0 38 -27 71 -60 32 -33 63 -60 68 -60 5 0 14 -9 20 -20 6 -12 21 -20 35 -20 14 0 29 -8 35 -20 6 -11 20 -20 30 -20 11 0 29 -9 40 -20 11 -11 26 -20 34 -20 7 0 25 -9 39 -20 14 -11 30 -20 36 -20 6 0 15 -9 21 -20 6 -11 19 -20 29 -20 10 0 30 -9 44 -20 16 -13 40 -20 70 -20 31 0 49 -6 62 -20 17 -19 31 -20 212 -20 180 0 194 1 213 20 15 15 33 20 78 20 46 0 60 4 70 20 7 11 23 20 37 20 16 0 41 15 67 40 27 26 51 40 68 40 14 0 33 9 43 20 9 11 23 20 32 20 23 0 115 101 115 127 0 7 9 18 20 25 12 8 20 24 20 40 0 18 13 40 40 67 22 22 40 47 40 55 0 9 9 25 21 37 20 20 21 30 20 311 0 278 -1 292 -21 313 -17 18 -20 35 -20 111 0 72 -4 95 -20 119 -11 17 -20 42 -20 56 0 15 -6 32 -14 38 -16 14 -32 146 -22 186 4 16 16 27 34 31 33 9 79 46 111 90 13 19 30 34 37 34 19 0 78 42 117 84 19 20 43 36 54 36 11 0 48 27 81 60 34 33 67 60 73 60 13 0 121 87 132 106 4 8 15 14 23 14 9 0 27 9 41 20 40 31 53 25 136 -60 51 -53 85 -80 100 -80 13 0 36 -16 57 -40 25 -28 43 -40 62 -40 17 0 33 -8 40 -20 8 -12 24 -20 40 -20 17 0 31 -8 38 -20 7 -13 21 -20 40 -20 19 0 33 -7 40 -20 7 -13 21 -20 40 -20 19 0 33 -7 40 -20 7 -13 21 -20 40 -20 17 0 39 -9 50 -20 11 -11 29 -20 40 -20 11 0 25 -9 32 -20 10 -15 24 -20 58 -20 25 -1 63 -9 85 -20 25 -12 62 -19 99 -20 45 0 65 -5 80 -20 19 -17 38 -19 184 -21 142 -2 166 -5 187 -21 34 -26 137 -26 165 2 17 17 33 20 114 20 59 0 96 4 98 11 4 12 30 15 193 25 86 5 115 11 134 25 16 13 40 19 75 19 40 0 54 4 64 20 8 13 23 20 42 20 19 0 33 7 40 20 6 11 21 20 33 20 12 0 30 9 40 20 11 14 29 20 55 20 25 0 48 7 62 20 15 13 37 20 63 20 22 0 47 7 56 15 36 33 80 65 91 65 10 0 29 16 116 101 15 15 31 20 59 17 34 -3 40 -7 47 -35 6 -24 16 -35 36 -39 15 -4 43 -23 62 -43 19 -20 46 -42 60 -49 44 -22 64 -36 100 -70 19 -19 47 -40 61 -47 15 -8 32 -28 37 -45 9 -24 17 -30 41 -30 16 0 34 -6 38 -14 9 -16 79 -66 92 -66 5 0 45 -36 90 -80 49 -48 89 -80 102 -80 20 0 79 -50 79 -67 0 -5 -18 -28 -40 -51 -22 -22 -40 -51 -40 -63 0 -13 -16 -37 -39 -58 -21 -20 -41 -46 -45 -58 -4 -11 -13 -27 -21 -33 -11 -9 -15 -33 -15 -80 0 -53 -4 -70 -19 -84 -14 -13 -20 -35 -23 -96 -3 -50 -11 -88 -21 -104 -13 -20 -17 -50 -17 -140 0 -105 2 -116 20 -126 17 -9 20 -21 20 -76 0 -51 5 -72 20 -91 11 -14 20 -40 20 -58 0 -26 12 -44 60 -93 41 -42 60 -70 60 -87 0 -16 15 -40 40 -66 22 -23 40 -47 40 -53 0 -24 99 -116 124 -116 15 0 30 -8 36 -20 6 -11 17 -20 24 -20 7 0 25 -9 39 -20 14 -11 32 -20 40 -20 7 0 22 -9 32 -20 14 -16 31 -20 77 -20 46 0 62 -4 75 -20 16 -19 30 -20 230 -20 199 0 213 1 222 19 9 16 23 19 93 20 68 1 84 4 100 21 10 11 27 20 37 20 10 0 26 9 36 20 10 11 22 20 27 20 4 0 25 18 47 40 21 22 48 40 60 40 11 0 21 5 21 11 0 5 15 16 33 24 19 8 51 36 72 62 21 26 46 55 56 63 10 8 21 27 24 42 12 48 58 48 108 -1 34 -35 47 -41 82 -41 55 0 65 -13 65 -87 0 -52 3 -64 20 -73 12 -7 20 -21 20 -38 0 -19 11 -36 38 -57 36 -29 41 -30 140 -30 97 0 104 1 121 24 30 39 55 25 59 -33 4 -57 41 -102 88 -108 26 -3 29 -7 32 -41 l3 -38 147 3 146 3 10 33 c6 22 17 34 34 39 14 3 47 29 74 57 42 44 48 56 48 93 0 32 5 45 20 53 18 9 20 21 20 101 0 89 0 90 -40 140 -22 28 -40 59 -40 68 0 20 -72 71 -100 71 -20 0 -44 20 -60 51 -9 16 -6 24 17 45 27 25 27 28 27 134 l0 109 -54 50 -55 51 -118 0 c-118 0 -119 0 -148 29 -20 20 -29 39 -29 61 0 44 -17 70 -44 70 -13 0 -30 9 -37 20 -12 17 -25 21 -81 21 -65 1 -67 1 -92 38 -21 29 -26 49 -26 94 0 46 -4 58 -20 67 -12 6 -20 21 -20 36 0 19 -8 28 -35 40 -24 10 -37 23 -42 43 -8 29 -86 121 -103 121 -5 0 -14 9 -20 19 -5 11 -23 22 -39 26 -20 4 -31 14 -36 32 -8 35 -59 81 -93 85 -21 2 -28 9 -30 32 -3 27 -50 86 -69 86 -4 0 -19 9 -33 20 -14 11 -39 20 -56 20 -25 0 -37 8 -59 40 -15 22 -34 40 -41 40 -7 0 -18 9 -24 20 -6 11 -21 20 -34 20 -23 0 -96 60 -96 78 0 5 20 26 44 47 25 21 47 48 50 60 3 12 17 27 31 33 14 7 31 24 37 39 7 16 39 53 70 84 40 39 58 65 58 81 0 14 9 33 20 43 17 15 20 31 20 92 0 60 -4 77 -20 93 -11 11 -20 27 -20 35 0 9 -18 35 -40 57 -22 23 -40 46 -40 50 0 17 -50 7 -60 -12 -8 -15 -21 -20 -53 -20 -36 0 -49 -6 -85 -40 -26 -25 -51 -40 -66 -40 -15 0 -30 -8 -36 -20 -7 -13 -21 -20 -40 -20 -17 0 -39 -9 -50 -20 -11 -11 -27 -20 -34 -20 -8 0 -57 -43 -109 -95 -52 -52 -98 -95 -103 -94 -5 0 -29 25 -54 54 -27 32 -53 55 -65 55 -11 0 -43 20 -70 45 -28 24 -58 51 -67 60 -10 8 -25 15 -34 15 -8 0 -42 27 -75 60 -32 33 -63 60 -68 60 -4 0 -16 9 -26 20 -10 11 -25 20 -33 20 -8 0 -31 18 -51 39 -20 22 -48 42 -63 46 -15 4 -29 13 -32 21 -3 8 -11 14 -19 14 -7 0 -26 18 -43 40 -16 22 -33 40 -39 40 -5 1 -24 13 -42 28 -29 25 -32 32 -26 65 3 22 14 42 24 48 12 6 19 21 19 38 0 16 9 40 20 54 11 14 20 34 20 44 0 10 9 35 20 56 11 20 20 50 20 66 0 15 9 40 20 54 11 14 20 40 20 60 0 19 9 45 20 60 15 19 20 40 20 91 0 50 5 74 19 94 14 19 21 51 24 110 4 56 10 89 21 101 13 15 16 48 16 207 0 105 -4 194 -9 200 -10 11 -19 67 -27 177 -5 62 -10 79 -25 88 -16 8 -19 21 -19 75 0 51 -5 72 -20 91 -12 16 -20 41 -20 65 0 25 -8 50 -20 65 -11 14 -20 41 -20 59 0 19 -4 34 -10 34 -5 0 -15 19 -21 43 -7 23 -21 53 -31 66 -10 13 -18 33 -18 45 0 25 60 76 89 76 11 0 25 9 31 20 6 11 15 20 21 20 6 0 22 9 36 20 14 11 34 20 44 20 18 0 103 53 114 71 4 5 17 9 30 9 14 0 29 9 35 20 6 11 17 20 25 20 18 0 87 47 98 66 4 8 20 14 34 14 14 0 36 10 48 23 60 61 104 97 117 97 8 0 33 18 56 40 22 22 50 40 62 40 13 0 26 12 37 35 11 23 26 38 43 42 14 3 31 15 38 25 7 10 20 18 28 18 8 0 14 5 14 11 0 5 15 16 33 24 32 14 113 85 132 116 37 61 71 104 129 164 36 38 66 72 66 76 0 4 9 9 20 12 14 4 20 14 20 34 0 20 11 38 40 63 26 23 40 44 40 60 0 16 14 37 40 60 27 24 40 43 40 61 0 14 9 36 20 49 11 13 20 32 20 42 0 11 9 22 20 25 15 4 20 14 20 39 0 23 6 37 20 44 13 7 20 21 20 39 0 15 9 38 20 51 11 13 20 31 20 40 0 10 10 24 21 32 17 11 21 23 21 61 -1 37 3 49 18 57 14 7 20 21 20 43 0 18 9 46 20 62 18 28 20 47 20 250 0 187 -2 224 -16 244 -11 15 -18 53 -22 109 -4 61 -12 102 -29 139 l-24 53 -59 0 -58 0 -28 -56 c-15 -30 -36 -60 -46 -65 -14 -7 -18 -22 -18 -59 0 -38 -4 -52 -19 -59 -10 -6 -21 -23 -24 -38 -3 -16 -21 -45 -41 -65 -19 -20 -38 -48 -42 -62 -3 -14 -30 -51 -60 -81 -30 -30 -54 -60 -54 -67 0 -18 -51 -88 -64 -88 -6 0 -24 -19 -41 -41 -16 -23 -54 -63 -82 -89 -29 -27 -53 -56 -53 -66 0 -20 -21 -43 -248 -270 -96 -96 -178 -174 -183 -174 -11 0 -59 -49 -59 -60 0 -4 -11 -11 -25 -14 -14 -4 -42 -24 -63 -44 -20 -21 -45 -41 -54 -45 -10 -3 -18 -11 -18 -16 0 -5 -12 -12 -27 -16 -15 -3 -44 -24 -64 -46 -24 -26 -44 -39 -62 -39 -16 0 -30 -8 -37 -20 -6 -11 -16 -20 -22 -20 -6 0 -28 -18 -49 -40 -21 -22 -47 -40 -59 -40 -11 0 -29 -9 -40 -20 -11 -11 -29 -20 -40 -20 -10 0 -24 -9 -30 -20 -7 -13 -21 -20 -39 -20 -15 0 -36 -9 -46 -20 -10 -11 -28 -20 -41 -20 -13 0 -28 -9 -34 -20 -7 -12 -21 -20 -37 -20 -18 0 -37 -12 -60 -40 -26 -30 -42 -40 -63 -40 -19 0 -33 -7 -40 -20 -7 -12 -21 -20 -38 -20 -16 0 -32 -8 -40 -20 -23 -37 -83 -27 -126 20 -24 27 -44 40 -61 40 -14 0 -28 7 -32 15 -3 9 -21 22 -39 30 -19 8 -34 19 -34 24 0 6 -7 11 -16 11 -8 0 -41 26 -73 58 -45 45 -67 60 -97 65 -21 4 -44 13 -50 22 -6 8 -19 15 -28 15 -9 0 -25 9 -36 20 -11 11 -28 20 -37 20 -34 0 -63 12 -63 26 0 8 -8 14 -18 14 -11 0 -27 9 -37 20 -10 11 -29 20 -41 20 -13 0 -29 9 -36 20 -10 15 -24 20 -55 20 -52 0 -143 19 -143 29 0 5 -30 11 -67 15 -38 4 -77 13 -88 20 -13 9 -69 15 -164 18 -125 4 -145 7 -157 23 -20 27 -360 28 -380 0 -11 -15 -32 -18 -135 -22 -87 -3 -137 -9 -177 -23 -31 -11 -68 -20 -83 -20 -14 0 -34 -9 -44 -20 -13 -15 -31 -20 -66 -20 -38 0 -51 -4 -59 -20 -8 -16 -21 -20 -60 -20 -39 0 -52 -4 -60 -20 -7 -13 -21 -20 -40 -20 -19 0 -33 -7 -40 -20 -7 -13 -21 -20 -40 -20 -19 0 -33 -7 -40 -20 -6 -11 -21 -20 -33 -20 -13 0 -41 -17 -65 -40 -29 -28 -50 -40 -70 -40 -16 0 -35 -7 -42 -15 -6 -8 -22 -17 -33 -21 -12 -4 -47 -33 -78 -65 -54 -56 -59 -59 -106 -59 -47 0 -53 3 -111 60 -52 50 -68 60 -97 60 -22 0 -43 8 -55 20 -11 11 -24 20 -30 20 -5 0 -14 9 -20 20 -7 13 -21 20 -41 20 -19 0 -32 6 -36 18 -7 21 -44 62 -55 62 -5 0 -36 27 -70 60 -34 32 -71 60 -82 62 -13 2 -28 18 -39 41 -11 25 -24 37 -37 37 -26 0 -160 132 -160 158 0 23 -19 42 -41 42 -16 0 -79 73 -79 91 0 4 -54 61 -119 126 -74 74 -120 128 -123 144 -2 15 -14 29 -33 38 -16 8 -31 18 -33 22 -9 22 -105 133 -174 201 -58 57 -78 84 -78 103 0 14 -7 28 -15 32 -9 3 -22 20 -31 37 -22 46 -37 69 -60 92 -11 11 -31 42 -43 67 -13 26 -26 47 -31 47 -12 0 -60 86 -60 108 0 10 -9 27 -20 37 -11 10 -20 23 -20 28 0 6 -7 19 -16 28 -9 10 -19 35 -21 56 -3 25 -15 48 -39 73 -19 19 -59 61 -88 93 -48 50 -59 57 -93 57 -26 0 -45 -7 -59 -23z m173 -440 c1 -43 24 -74 57 -79 15 -2 22 -11 24 -33 2 -16 10 -35 19 -42 17 -13 33 -38 57 -89 8 -17 22 -36 30 -44 9 -7 16 -22 16 -34 0 -12 17 -36 40 -56 26 -22 40 -44 40 -59 0 -15 15 -38 39 -60 21 -20 51 -58 65 -86 17 -31 37 -54 55 -61 16 -7 32 -22 36 -35 4 -12 26 -40 49 -63 22 -23 57 -61 76 -84 19 -24 45 -48 58 -53 15 -6 22 -17 22 -35 0 -29 68 -101 122 -130 15 -7 30 -24 33 -36 11 -31 381 -398 403 -398 11 0 56 -36 101 -80 49 -48 90 -80 102 -80 12 0 38 -18 59 -39 21 -21 47 -42 58 -45 11 -4 26 -13 32 -21 7 -8 27 -15 46 -15 23 0 37 -6 44 -19 6 -12 23 -21 43 -23 29 -3 32 -6 35 -40 3 -35 -2 -43 -117 -159 -86 -86 -121 -128 -121 -145 0 -13 -9 -28 -19 -34 -11 -5 -22 -24 -26 -41 -12 -53 -30 -45 -132 57 -93 94 -153 144 -173 144 -6 0 -15 9 -22 20 -7 11 -17 20 -21 20 -5 0 -37 28 -73 63 -35 34 -72 69 -81 78 -10 9 -28 27 -40 40 -36 39 -60 57 -80 61 -10 2 -23 17 -28 33 -6 17 -78 98 -168 188 -86 87 -157 166 -157 175 0 19 -52 72 -87 91 -13 6 -23 18 -23 27 0 8 -20 34 -45 58 -25 25 -45 54 -45 65 0 11 -9 26 -20 33 -11 7 -20 18 -20 25 0 7 -9 17 -20 23 -12 6 -20 21 -20 36 0 15 -12 38 -30 56 -17 16 -38 44 -47 61 -8 17 -22 37 -29 45 -8 7 -14 24 -14 36 0 13 -9 31 -20 41 -14 13 -20 31 -20 60 0 29 -6 47 -20 60 -11 10 -20 30 -20 44 0 15 -9 34 -20 44 -17 14 -20 29 -20 100 0 64 -5 92 -20 122 -18 35 -20 57 -19 190 1 83 3 154 6 158 3 5 15 7 26 5 18 -2 22 -10 24 -41z m7201 -303 c2 -11 -6 -28 -18 -39 -18 -16 -20 -30 -20 -135 0 -104 -2 -119 -20 -135 -11 -10 -20 -22 -20 -27 0 -6 -9 -21 -20 -35 -11 -14 -20 -41 -20 -59 0 -23 -6 -37 -20 -44 -11 -6 -20 -19 -20 -29 0 -10 -9 -26 -20 -36 -11 -10 -20 -31 -20 -47 0 -16 -9 -36 -20 -45 -11 -10 -20 -30 -20 -45 0 -17 -7 -31 -20 -38 -12 -6 -20 -21 -20 -35 0 -16 -15 -40 -40 -65 -22 -22 -40 -49 -40 -61 0 -27 -56 -95 -114 -138 -32 -24 -46 -42 -46 -58 0 -35 -167 -200 -206 -205 -24 -2 -30 -8 -32 -33 -4 -33 -94 -125 -123 -125 -9 0 -44 -27 -77 -60 -34 -33 -69 -60 -79 -60 -16 0 -32 -12 -75 -57 -12 -13 -31 -23 -41 -23 -19 0 -30 -7 -81 -57 -13 -13 -33 -23 -45 -23 -11 0 -38 -18 -60 -40 -21 -22 -41 -40 -45 -40 -3 0 -15 -9 -26 -20 -11 -11 -28 -20 -38 -20 -9 0 -23 -9 -30 -20 -8 -13 -23 -20 -42 -20 -19 0 -33 -7 -40 -20 -6 -11 -17 -20 -26 -20 -8 0 -17 -6 -20 -14 -3 -8 -19 -18 -35 -21 -16 -4 -34 -15 -39 -26 -6 -10 -17 -19 -26 -19 -8 0 -17 -7 -20 -15 -14 -35 -54 -2 -54 43 0 11 -7 22 -15 26 -8 3 -15 11 -15 19 0 7 -11 28 -25 47 -14 19 -25 40 -25 47 0 7 -36 48 -80 92 -44 44 -80 85 -80 91 0 19 57 70 78 70 10 0 27 9 37 20 10 11 31 20 46 20 18 0 32 7 39 20 6 11 16 20 23 20 7 0 20 9 30 20 9 11 26 20 38 20 11 0 32 9 46 20 14 11 39 20 55 20 20 0 41 12 70 40 23 22 52 40 63 40 12 0 30 9 40 20 10 11 25 20 33 20 15 0 26 8 76 58 13 12 27 22 32 22 5 0 15 9 22 20 7 11 23 20 37 20 14 0 29 8 35 20 6 11 17 20 25 20 18 0 87 47 98 66 4 8 12 14 17 14 6 0 19 9 30 20 11 11 26 20 34 20 8 0 86 72 175 160 88 88 165 160 170 160 5 0 15 10 23 23 9 12 55 64 104 114 126 132 187 201 199 227 6 12 25 37 44 55 18 18 44 52 57 76 12 24 50 72 83 106 34 34 61 66 61 71 0 4 9 17 21 29 26 26 73 23 77 -7z m-3541 -1109 c25 -18 74 -23 226 -25 94 -2 108 -4 117 -21 8 -15 22 -19 59 -19 33 0 56 -6 74 -20 14 -11 40 -20 60 -20 21 0 41 -7 52 -20 10 -11 27 -20 38 -20 11 0 30 -10 43 -22 52 -52 62 -58 86 -58 14 0 33 -9 43 -20 10 -11 26 -20 35 -20 10 0 29 -9 43 -20 14 -11 32 -20 41 -20 9 0 21 -9 28 -20 7 -11 18 -20 24 -20 6 0 19 -9 29 -20 10 -11 25 -20 34 -20 9 0 32 -18 51 -40 23 -26 44 -40 60 -40 19 0 43 -21 94 -80 38 -44 73 -80 79 -80 5 0 41 -33 81 -74 88 -93 92 -97 101 -127 4 -13 25 -40 46 -60 23 -21 39 -45 39 -58 0 -13 9 -34 20 -48 11 -14 20 -33 20 -43 0 -9 9 -25 20 -35 11 -10 20 -28 20 -41 0 -13 9 -28 20 -34 12 -7 20 -21 20 -38 0 -16 8 -32 20 -40 12 -7 20 -23 20 -40 0 -15 9 -35 20 -45 14 -12 20 -29 20 -62 0 -34 5 -47 20 -55 17 -9 20 -21 20 -89 0 -65 3 -81 20 -96 13 -12 20 -31 20 -55 0 -23 5 -40 14 -43 10 -4 16 -37 21 -119 6 -86 11 -115 24 -125 25 -18 26 -279 1 -293 -13 -7 -19 -29 -24 -102 -5 -63 -11 -97 -21 -104 -9 -7 -15 -29 -15 -57 0 -36 -4 -49 -20 -57 -17 -9 -20 -21 -20 -84 0 -60 -3 -76 -20 -91 -15 -13 -20 -31 -20 -65 0 -32 -6 -55 -20 -73 -11 -14 -20 -40 -20 -57 0 -32 -54 -130 -72 -130 -4 0 -8 -11 -8 -25 0 -14 -8 -29 -19 -34 -10 -6 -22 -22 -25 -37 -7 -26 -14 -37 -51 -77 -28 -30 -65 -86 -65 -98 0 -13 -105 -123 -379 -394 -6 -5 -24 -23 -41 -40 -16 -16 -49 -49 -72 -72 -22 -24 -46 -43 -52 -43 -6 0 -17 -9 -24 -20 -7 -11 -22 -20 -35 -20 -12 0 -28 -9 -35 -20 -8 -13 -23 -20 -42 -20 -19 0 -33 -7 -40 -20 -8 -15 -21 -20 -55 -20 -39 0 -50 -5 -84 -40 -24 -25 -48 -40 -62 -40 -13 0 -30 -9 -37 -20 -10 -16 -23 -20 -68 -20 -41 0 -63 -5 -81 -20 -19 -14 -41 -20 -79 -20 -35 0 -67 -7 -91 -20 -28 -15 -57 -20 -115 -20 -67 0 -79 -3 -88 -20 -10 -19 -20 -20 -301 -17 -264 2 -292 4 -303 20 -11 13 -28 17 -88 17 -60 0 -78 4 -92 19 -12 14 -36 20 -98 24 -58 4 -85 10 -94 21 -6 9 -18 16 -26 16 -9 0 -27 9 -41 20 -14 11 -37 20 -52 20 -19 0 -40 13 -66 40 -25 26 -48 40 -64 40 -14 0 -30 9 -37 20 -8 12 -24 20 -40 20 -17 0 -31 8 -38 20 -7 13 -21 20 -40 20 -19 0 -34 7 -42 20 -8 12 -24 20 -40 20 -18 0 -31 8 -39 23 -7 12 -27 37 -46 56 -18 18 -33 39 -33 47 0 7 -12 21 -27 31 -33 20 -133 121 -133 133 0 5 -36 45 -80 89 -51 50 -80 87 -80 101 0 12 -14 36 -31 53 -18 17 -38 45 -45 62 -7 16 -28 47 -48 67 -28 29 -36 45 -36 75 0 30 -8 46 -37 78 -38 41 -52 60 -75 105 -7 14 -20 36 -30 49 -11 14 -18 41 -18 68 0 30 -7 53 -20 70 -11 14 -20 33 -20 43 0 9 -9 25 -20 35 -17 15 -20 31 -20 91 0 63 -3 75 -20 84 -18 10 -20 21 -20 114 0 92 -2 105 -21 122 -20 18 -20 25 -14 179 3 88 7 188 8 222 1 34 8 68 15 74 7 8 12 40 12 80 0 51 5 72 20 92 14 18 20 40 20 76 0 33 7 62 20 83 11 18 20 47 20 64 0 17 9 43 20 57 14 18 20 40 20 76 0 40 4 52 20 61 13 7 20 21 20 39 0 16 9 40 20 54 11 14 20 32 20 40 0 7 9 22 20 32 14 12 20 31 20 57 0 36 7 46 80 118 44 43 80 83 80 89 0 5 6 14 13 18 6 4 26 28 42 53 34 50 119 140 133 140 6 0 13 7 16 15 3 9 19 21 35 26 17 6 33 19 36 30 8 25 64 78 90 85 11 3 36 23 54 45 24 27 42 39 60 39 15 0 31 8 39 20 7 12 23 20 40 20 19 0 37 11 61 40 25 29 41 40 62 40 18 0 32 7 39 20 6 11 20 20 32 20 12 0 28 7 37 15 54 51 81 65 122 65 26 0 50 7 61 17 10 9 42 18 73 21 36 3 60 11 71 23 15 17 33 19 168 19 134 0 154 2 181 20 27 18 47 20 230 20 164 0 205 -3 222 -15z m-2163 -3303 c15 -22 26 -52 26 -71 0 -27 10 -43 59 -90 33 -32 71 -78 84 -103 13 -25 41 -62 63 -82 43 -40 40 -68 -7 -75 -13 -1 -40 -20 -59 -41 -19 -21 -46 -40 -60 -41 -17 -3 -30 -15 -39 -36 -8 -17 -23 -34 -35 -37 -12 -3 -40 -23 -63 -46 -23 -22 -50 -40 -59 -40 -19 0 -22 -2 -116 -94 -37 -36 -71 -66 -77 -66 -21 0 -22 22 -3 41 16 14 19 27 15 51 -4 25 0 38 16 52 15 14 21 31 21 65 0 30 7 55 20 71 11 14 20 39 20 57 0 22 6 36 20 43 11 6 20 17 20 24 0 7 9 25 20 39 30 38 26 92 -9 128 -27 27 -35 29 -103 29 -62 0 -75 -3 -86 -20 -7 -12 -23 -20 -39 -20 -15 0 -37 -10 -49 -21 -26 -24 -54 -19 -54 10 0 19 18 31 46 31 8 0 31 18 53 40 21 22 48 40 60 40 11 0 38 18 60 40 21 22 46 40 55 40 9 0 19 7 22 15 3 8 15 17 26 21 11 3 37 23 57 45 45 48 62 49 95 1z m-1527 -102 c10 -11 28 -20 40 -20 13 0 28 -9 35 -20 7 -11 21 -20 31 -20 9 0 25 -9 34 -20 10 -11 21 -20 26 -20 5 0 31 -18 57 -40 26 -22 53 -40 60 -40 7 0 29 -17 49 -38 20 -20 56 -51 81 -67 25 -17 49 -36 53 -42 4 -7 12 -13 18 -13 5 0 32 -22 59 -50 38 -37 50 -56 50 -80 0 -17 5 -30 13 -30 16 0 67 -64 67 -85 0 -9 16 -33 36 -53 19 -20 38 -49 41 -65 3 -15 14 -32 24 -38 11 -5 19 -19 19 -30 0 -11 9 -29 20 -41 11 -12 20 -31 20 -43 0 -12 9 -30 20 -40 11 -10 20 -31 20 -46 0 -15 7 -32 15 -36 23 -13 65 -75 65 -96 0 -10 9 -30 20 -44 14 -18 20 -41 20 -79 0 -43 4 -55 20 -64 13 -7 20 -21 20 -41 0 -16 7 -41 16 -54 11 -17 17 -59 21 -147 4 -81 10 -128 19 -138 21 -25 21 -305 0 -329 -9 -10 -16 -35 -16 -59 0 -31 -5 -44 -20 -52 -13 -7 -20 -21 -20 -40 0 -19 -7 -33 -20 -40 -11 -6 -20 -20 -20 -31 0 -32 -48 -83 -84 -89 -27 -4 -32 -10 -36 -40 -4 -30 -9 -35 -35 -38 -16 -2 -40 -12 -53 -23 -14 -10 -38 -19 -55 -19 -29 0 -42 -9 -89 -57 -21 -22 -27 -23 -239 -23 -217 0 -218 0 -244 24 -15 14 -40 28 -56 31 -16 4 -29 11 -29 16 0 5 -11 9 -25 9 -14 0 -29 8 -35 19 -5 11 -23 22 -40 26 -16 4 -30 11 -30 16 0 5 -8 13 -17 16 -10 4 -35 24 -55 45 -21 21 -47 38 -58 38 -11 0 -25 9 -32 20 -7 11 -17 20 -21 20 -5 0 -29 20 -54 45 -24 25 -48 45 -53 45 -13 0 -41 31 -35 39 2 5 30 9 61 9 42 0 61 5 78 21 12 12 33 21 47 21 16 0 41 15 67 40 22 22 46 40 51 40 6 0 14 7 19 16 5 8 28 18 52 21 33 5 51 15 78 45 19 21 40 38 47 38 7 0 25 18 40 40 19 27 35 40 51 40 13 0 34 10 47 23 63 60 110 97 125 97 9 0 33 18 52 40 19 22 41 40 48 40 7 0 15 6 18 14 3 8 17 17 31 21 14 3 51 33 83 65 31 33 62 60 68 60 6 0 15 7 20 15 4 9 21 19 37 23 22 6 31 17 37 41 5 17 15 34 23 38 21 7 20 91 -1 114 -9 10 -18 36 -21 59 -4 25 -13 44 -24 51 -11 5 -19 20 -19 33 0 13 -9 31 -20 41 -11 10 -20 31 -20 47 0 16 -6 31 -15 34 -8 3 -28 29 -44 58 -17 28 -55 78 -85 111 -31 33 -56 68 -56 79 0 10 -27 44 -60 76 -33 32 -60 63 -60 69 0 6 -6 14 -14 17 -8 3 -18 19 -21 35 -4 16 -24 44 -46 62 -25 22 -39 43 -39 58 -1 25 -131 148 -168 159 -10 3 -35 22 -57 42 -22 21 -61 56 -87 79 -27 23 -48 45 -48 50 0 19 90 10 107 -11z m5518 -80 c40 -33 78 -60 84 -60 5 0 37 -27 70 -60 38 -38 69 -60 83 -60 21 -1 78 -41 78 -55 0 -13 -122 4 -139 19 -11 10 -35 16 -64 16 -36 0 -49 4 -57 20 -9 17 -21 20 -71 20 -57 0 -63 -2 -105 -42 -48 -45 -57 -80 -24 -98 13 -7 20 -21 20 -40 0 -19 7 -33 20 -40 13 -7 20 -21 20 -40 0 -19 7 -33 21 -40 14 -8 20 -20 19 -38 -4 -61 0 -80 20 -85 14 -3 20 -14 20 -31 0 -18 14 -41 40 -69 34 -35 40 -48 38 -77 -4 -52 -27 -48 -96 19 -34 33 -72 63 -86 67 -13 3 -27 12 -30 20 -3 8 -12 14 -20 14 -9 0 -20 9 -26 19 -5 11 -19 22 -29 26 -11 3 -30 22 -41 41 -16 25 -29 34 -48 34 -19 0 -38 12 -62 40 -19 22 -43 40 -52 40 -10 0 -26 8 -36 18 -10 10 -26 21 -35 25 -12 4 -17 18 -17 46 0 42 -2 40 79 83 44 23 161 145 161 168 0 12 12 34 28 50 15 15 43 46 62 68 52 61 82 58 175 -18z m1370 -270 c3 -5 -43 -59 -103 -118 -60 -60 -113 -118 -116 -130 -4 -11 -31 -45 -61 -74 -30 -29 -55 -57 -55 -61 0 -12 -56 -67 -68 -67 -5 0 -18 -12 -28 -26 -51 -71 -74 -101 -88 -116 -9 -10 -16 -22 -16 -28 0 -5 -18 -27 -40 -49 -26 -25 -40 -48 -40 -65 0 -15 -8 -30 -20 -36 -11 -6 -20 -20 -20 -31 0 -11 -18 -38 -40 -60 -29 -29 -40 -49 -40 -71 0 -21 -6 -31 -20 -35 -15 -4 -20 -14 -20 -39 0 -22 -6 -37 -16 -41 -8 -3 -22 -23 -31 -44 -8 -22 -19 -39 -24 -39 -5 0 -9 -15 -9 -34 0 -23 -7 -38 -20 -47 -18 -12 -21 -25 -21 -83 -1 -59 -3 -69 -20 -73 -18 -5 -19 -17 -19 -209 0 -193 1 -204 20 -214 12 -6 20 -21 20 -36 0 -33 206 -244 238 -244 12 0 27 -9 34 -20 7 -11 18 -20 24 -20 6 0 19 -9 29 -20 17 -19 31 -20 245 -20 214 0 228 1 245 20 13 14 31 20 63 20 40 0 49 4 79 40 24 28 43 40 61 40 14 0 35 8 46 19 23 20 86 36 86 22 0 -5 -15 -21 -32 -36 -18 -15 -36 -36 -40 -46 -5 -14 -17 -19 -43 -19 -32 0 -35 -2 -35 -31 0 -31 -46 -89 -70 -89 -6 0 -45 -27 -85 -60 -40 -33 -83 -60 -94 -60 -11 0 -25 -9 -31 -19 -10 -19 -23 -20 -273 -21 -250 0 -265 1 -289 20 -15 11 -40 20 -57 20 -20 0 -34 7 -41 20 -7 13 -21 20 -39 20 -32 0 -101 49 -116 83 -5 13 -28 41 -51 63 -22 22 -51 61 -63 86 -12 26 -28 49 -36 52 -9 3 -15 18 -15 35 0 20 -7 34 -20 41 -16 8 -20 21 -20 60 0 39 -4 52 -20 60 -19 10 -20 21 -20 189 0 165 1 179 20 196 14 13 20 31 20 60 0 29 6 47 20 60 14 13 20 31 20 62 0 36 4 46 20 50 14 4 20 14 20 35 0 23 14 43 60 89 41 40 60 67 60 84 0 14 8 29 20 35 11 6 20 17 20 25 0 15 56 86 118 150 22 22 43 51 47 64 9 30 10 31 113 138 45 47 82 94 82 103 0 17 134 160 150 160 4 0 15 11 23 23 22 34 83 97 93 97 5 0 22 18 38 40 17 22 35 40 41 40 7 0 28 18 49 40 20 22 45 40 55 40 10 0 26 9 36 20 20 22 98 29 110 10z m-5755 -38 c0 -4 -4 -12 -9 -17 -5 -6 -11 -23 -13 -40 -4 -36 -42 -49 -52 -17 -4 11 -16 22 -26 25 -27 7 -25 36 3 47 28 11 97 13 97 2z m-203 -64 c12 -13 23 -36 25 -53 3 -29 6 -30 58 -35 62 -6 78 -31 40 -65 -13 -12 -20 -31 -20 -54 0 -45 -12 -64 -36 -59 -14 2 -20 13 -22 41 -2 20 -9 37 -15 37 -17 0 -94 101 -103 134 -5 21 -1 32 17 50 30 30 31 30 56 4z m4826 -68 c16 -13 40 -20 66 -20 30 0 44 -5 53 -20 11 -17 24 -20 77 -20 52 0 69 -4 87 -21 16 -15 35 -20 83 -21 74 -1 79 -6 43 -45 -15 -17 -45 -51 -66 -76 -22 -26 -49 -50 -60 -53 -12 -4 -27 -16 -35 -26 -13 -19 -14 -19 -41 9 -16 16 -30 42 -32 58 -3 32 -28 42 -74 31 -20 -5 -24 -13 -24 -42 0 -37 26 -71 83 -107 33 -21 34 -29 3 -62 -33 -35 -60 -30 -64 13 -2 19 -11 36 -23 42 -10 6 -19 21 -19 33 0 12 -9 30 -20 40 -13 11 -20 29 -20 51 0 25 -5 35 -20 39 -15 4 -20 14 -20 36 0 20 -7 34 -20 41 -14 7 -20 21 -20 44 0 25 -5 35 -20 39 -19 5 -27 36 -13 50 14 14 71 6 96 -13z m-5421 -238 c46 -72 37 -82 -74 -82 -67 0 -79 3 -88 20 -16 30 8 74 43 78 15 2 32 12 37 23 18 33 43 21 82 -39z m-263 -142 c25 0 41 -20 41 -53 0 -28 18 -54 95 -139 15 -16 25 -39 25 -57 0 -30 2 -31 41 -31 63 0 99 41 99 113 0 48 -3 55 -22 60 -21 6 -19 10 27 52 59 54 72 56 90 11 8 -18 21 -36 30 -39 9 -4 15 -19 15 -42 0 -21 5 -35 13 -35 20 0 67 -67 67 -96 0 -31 -89 -124 -118 -124 -8 0 -32 -17 -53 -37 -100 -99 -129 -123 -149 -123 -14 0 -43 -22 -79 -58 -31 -32 -64 -61 -73 -65 -10 -3 -18 -11 -18 -16 0 -5 -12 -12 -27 -16 -15 -3 -43 -23 -63 -44 -19 -21 -43 -40 -52 -44 -10 -4 -18 -11 -18 -16 0 -6 -16 -13 -35 -17 -25 -4 -46 -18 -67 -45 -20 -25 -40 -39 -54 -39 -13 0 -28 -9 -34 -19 -9 -19 -22 -20 -167 -20 l-157 0 -28 31 c-17 19 -28 43 -28 60 0 15 -5 28 -11 28 -6 0 -23 13 -38 28 -41 40 -43 141 -4 172 32 25 58 26 75 2 7 -10 25 -22 41 -26 15 -3 27 -11 27 -16 0 -6 11 -15 25 -20 19 -7 25 -17 25 -40 0 -42 22 -47 64 -13 31 24 36 34 36 72 0 31 7 51 25 73 14 16 25 35 25 43 0 24 34 28 49 6 15 -24 69 -29 89 -9 7 7 12 31 12 53 0 57 39 98 69 71 15 -13 34 -16 92 -14 l74 3 3 44 c3 34 -1 46 -17 57 -11 8 -21 27 -23 42 -2 22 -9 28 -33 30 -32 3 -57 26 -49 46 6 16 -14 33 -46 38 -19 2 -26 10 -28 33 -2 17 -10 34 -18 38 -18 10 -9 27 15 27 10 0 26 9 36 20 10 11 23 20 29 20 6 0 17 9 24 20 7 11 20 20 30 20 10 0 26 10 36 22 l19 22 15 -22 c8 -12 22 -22 31 -22z m6610 -106 c20 -23 21 -27 6 -37 -11 -9 -16 -30 -17 -80 -1 -76 -4 -81 -52 -72 -26 5 -36 13 -41 33 -4 15 -15 35 -26 45 -22 20 -18 51 14 104 25 44 81 47 116 7z m-6914 -121 c52 -57 18 -116 -63 -111 -40 3 -47 6 -50 26 -2 12 -8 22 -13 22 -5 0 -9 7 -9 15 0 8 5 15 10 15 6 0 10 11 10 23 0 32 7 37 51 37 29 0 45 -7 64 -27z m7078 -42 c38 -41 36 -78 -7 -120 l-35 -34 -33 28 c-30 25 -33 33 -34 84 -2 70 -1 71 44 71 28 0 44 -7 65 -29z m-338 -63 c44 -40 46 -45 41 -83 -9 -61 2 -70 86 -70 l73 0 3 -77 3 -78 93 0 c88 0 93 -1 117 -27 18 -21 24 -40 25 -78 2 -103 -5 -95 77 -95 66 0 74 -2 99 -28 20 -22 27 -39 26 -70 -1 -53 6 -62 50 -62 33 0 45 8 115 82 72 76 80 81 105 72 60 -21 69 -118 11 -120 -75 -3 -86 -15 -79 -92 1 -13 -9 -34 -22 -47 -13 -13 -43 -44 -68 -69 -61 -63 -95 -63 -156 -1 -24 25 -50 45 -58 45 -8 0 -24 16 -36 35 -13 22 -29 35 -42 35 -12 0 -37 17 -57 38 -20 21 -47 43 -61 50 -48 24 -65 37 -125 95 -33 31 -68 57 -79 57 -10 0 -36 18 -57 40 -22 22 -48 40 -60 40 -12 0 -45 24 -77 58 -32 31 -69 63 -82 70 -85 45 -83 42 -76 81 3 20 12 41 21 47 8 6 15 22 15 35 0 15 18 43 44 72 25 26 48 56 51 67 9 30 29 24 80 -22z m-6997 -25 c2 -20 11 -37 23 -43 10 -6 19 -21 19 -34 0 -27 -25 -53 -35 -36 -3 5 -25 10 -48 10 -70 0 -74 9 -36 79 40 71 72 81 77 24z m7576 -73 c30 -33 31 -64 1 -94 -8 -8 -15 -19 -15 -25 0 -37 -115 -43 -149 -8 -19 21 -20 25 -6 37 8 7 15 26 15 42 0 18 6 31 17 35 9 4 25 15 35 25 28 28 69 23 102 -12z m229 -200 c24 -12 25 -15 13 -29 -8 -9 -16 -27 -18 -41 -1 -13 -13 -30 -26 -36 -13 -6 -29 -17 -35 -23 -32 -32 -77 8 -77 68 0 71 65 99 143 61z m-1053 -170 c26 -22 53 -40 60 -40 6 0 32 -19 56 -42 64 -63 83 -78 95 -78 10 0 49 -28 92 -65 9 -8 24 -15 34 -15 9 0 32 -17 52 -39 20 -21 47 -42 59 -46 14 -4 30 -21 38 -41 11 -25 20 -34 39 -34 13 0 30 -8 37 -19 7 -10 23 -21 34 -25 12 -4 30 -16 40 -27 19 -21 18 -21 -9 -45 -16 -13 -38 -24 -49 -24 -12 0 -30 -8 -41 -17 -16 -16 -126 -30 -232 -32 -98 -1 -182 11 -197 29 -9 11 -25 20 -37 20 -25 0 -121 94 -121 119 0 10 -9 26 -20 36 -15 14 -20 31 -20 74 -1 33 -7 64 -15 75 -19 25 -19 55 0 76 10 11 15 41 16 101 1 46 3 87 6 92 10 16 38 5 83 -33z m-7141 -46 c17 -25 31 -47 31 -50 0 -3 18 -24 40 -46 29 -31 40 -50 40 -73 0 -19 8 -39 20 -50 28 -25 16 -35 -40 -35 -51 0 -80 17 -80 48 0 9 -18 33 -40 52 -28 25 -40 43 -40 62 0 17 -8 31 -20 38 -15 8 -20 21 -20 49 0 46 4 51 46 51 28 0 37 -7 63 -46z m-289 -118 c34 -1 35 -2 40 -51 5 -51 13 -65 83 -134 48 -49 52 -116 11 -186 -25 -44 -25 -44 -82 -44 -55 1 -58 3 -104 53 -32 34 -48 60 -48 77 0 18 -6 28 -20 32 -14 4 -20 14 -20 34 0 17 -8 33 -20 41 -13 8 -20 23 -20 42 0 17 9 39 20 50 11 11 20 31 20 44 0 34 37 58 75 50 17 -4 46 -7 65 -8z m8913 -181 c-2 -40 -7 -63 -18 -71 -8 -6 -15 -23 -15 -38 0 -20 -22 -48 -90 -117 l-90 -90 -58 3 -57 3 -2 64 -3 65 53 51 c29 28 69 74 90 103 26 35 46 52 60 52 12 0 28 9 35 21 10 16 21 19 55 17 l42 -3 -2 -60z m-9232 -162 c5 -15 35 -57 65 -95 63 -78 68 -106 26 -148 -27 -27 -33 -28 -126 -28 -82 -1 -98 2 -103 16 -3 9 -13 25 -21 35 -10 11 -17 43 -19 86 l-3 68 47 46 c39 40 53 47 85 47 33 0 40 -4 49 -27z m9561 -18 c-2 -22 -12 -49 -23 -61 -10 -11 -19 -33 -19 -48 0 -37 -17 -66 -38 -66 -23 0 -42 -19 -42 -42 0 -10 -40 -58 -89 -108 -79 -80 -93 -90 -125 -90 -46 0 -86 41 -86 88 0 41 44 89 86 94 22 2 30 9 33 28 1 14 19 41 40 62 58 59 75 80 94 122 29 65 33 67 106 64 l66 -3 -3 -40z m176 -364 c31 -19 35 -157 5 -168 -7 -3 -20 -18 -28 -33 -8 -15 -29 -37 -48 -47 -44 -26 -87 -9 -87 35 0 15 -9 35 -20 45 -35 29 -26 71 27 127 43 46 51 50 93 50 25 0 51 -4 58 -9z"/>
            <path d="M5462 7055 c-120 -8 -145 -13 -153 -27 -6 -11 -22 -18 -37 -18 -15 0 -35 -9 -45 -20 -12 -14 -29 -20 -59 -20 -32 0 -46 -5 -56 -20 -9 -15 -23 -20 -60 -20 -36 0 -50 -5 -60 -20 -7 -12 -23 -20 -40 -20 -16 0 -32 -8 -40 -20 -8 -13 -23 -20 -42 -20 -19 0 -33 -7 -40 -20 -7 -12 -21 -20 -38 -20 -16 0 -32 -8 -40 -20 -7 -11 -17 -20 -22 -20 -6 0 -19 -9 -30 -20 -11 -11 -29 -20 -40 -20 -10 0 -24 -9 -30 -20 -6 -12 -21 -20 -36 -20 -17 0 -43 -19 -85 -60 -33 -33 -68 -60 -79 -60 -25 0 -240 -212 -240 -237 0 -10 -18 -38 -40 -61 -25 -26 -40 -51 -40 -67 0 -14 -6 -28 -14 -31 -8 -3 -26 -30 -41 -60 -15 -30 -35 -59 -46 -64 -10 -6 -19 -19 -19 -29 0 -10 -9 -29 -19 -43 -11 -13 -23 -36 -26 -51 -4 -14 -13 -28 -21 -31 -8 -3 -14 -19 -14 -39 0 -19 -9 -46 -20 -60 -16 -20 -20 -40 -20 -95 0 -56 -4 -72 -20 -87 -15 -13 -20 -31 -20 -66 0 -38 -4 -51 -20 -59 -17 -9 -20 -21 -20 -90 0 -48 -6 -95 -15 -118 -12 -28 -13 -45 -6 -65 8 -19 6 -28 -5 -37 -16 -14 -20 -135 -5 -144 12 -8 22 -65 28 -163 2 -46 8 -83 12 -83 16 0 31 -54 31 -114 0 -50 4 -67 20 -81 13 -11 20 -31 20 -52 0 -20 9 -46 20 -60 11 -14 20 -40 20 -57 0 -18 6 -38 13 -44 6 -7 13 -23 14 -35 5 -71 18 -104 54 -138 26 -24 39 -45 39 -62 0 -16 8 -30 20 -37 13 -7 20 -21 20 -41 0 -16 6 -32 14 -35 8 -3 27 -23 42 -45 14 -21 32 -39 39 -39 12 0 65 -69 65 -85 0 -16 69 -75 88 -75 10 0 33 -20 53 -46 19 -25 54 -62 79 -82 25 -20 60 -52 78 -71 32 -32 66 -55 120 -80 12 -6 22 -19 22 -31 0 -30 62 -90 92 -90 14 0 36 -8 49 -19 13 -10 34 -21 46 -25 11 -4 27 -13 33 -21 7 -8 23 -15 35 -15 12 0 34 -9 48 -20 14 -11 32 -20 40 -20 8 0 26 -9 40 -20 20 -16 40 -20 96 -20 60 0 73 -3 83 -20 10 -16 24 -20 64 -20 36 0 59 -6 77 -20 38 -30 383 -31 425 0 24 17 46 19 187 21 144 3 165 5 212 27 29 13 55 27 58 31 2 5 29 12 58 15 34 5 59 14 70 26 13 15 30 20 70 20 41 0 58 5 72 20 13 14 31 20 62 20 37 0 48 5 82 40 21 22 45 40 53 40 8 0 23 9 33 20 10 11 23 20 29 20 6 0 17 9 24 20 7 12 23 20 41 20 15 0 36 9 46 20 10 11 27 20 37 20 15 0 184 164 418 405 11 12 20 31 20 42 0 12 9 27 20 33 13 7 20 21 20 40 0 19 7 33 20 40 13 7 20 21 20 40 0 18 7 33 19 39 12 7 20 25 24 57 3 28 11 51 21 56 10 5 16 22 16 42 0 18 9 45 20 59 11 14 20 32 20 41 0 8 9 20 20 26 11 6 20 17 20 24 0 7 9 21 20 31 18 16 20 31 20 131 0 98 3 116 19 131 15 14 20 36 22 99 3 60 9 87 22 101 25 29 25 296 0 333 -14 19 -19 51 -21 133 -4 93 -7 109 -23 118 -13 6 -19 21 -19 43 0 25 -5 35 -20 39 -17 4 -20 14 -20 56 0 40 -4 52 -20 61 -11 6 -20 21 -20 34 0 13 -9 31 -20 41 -15 13 -20 31 -20 66 0 38 -4 51 -20 59 -13 7 -20 21 -20 40 0 19 -7 33 -20 40 -13 7 -20 21 -20 40 0 19 -7 33 -20 40 -11 6 -20 21 -20 33 0 15 -34 57 -99 124 -71 72 -100 109 -103 130 -2 22 -9 29 -32 33 -16 3 -32 12 -36 20 -22 47 -29 55 -54 58 -14 2 -31 12 -36 23 -7 11 -21 19 -38 19 -19 0 -37 12 -62 40 -25 28 -43 40 -62 40 -16 0 -31 8 -37 19 -6 10 -22 22 -37 25 -14 4 -41 22 -59 41 -18 19 -36 35 -41 35 -5 0 -25 18 -44 40 -25 28 -43 40 -62 40 -17 0 -31 8 -38 20 -7 13 -21 20 -40 20 -18 0 -33 7 -39 19 -8 14 -25 20 -72 23 -42 3 -66 10 -74 21 -7 9 -23 17 -37 17 -14 0 -37 9 -51 20 -20 16 -41 20 -111 21 -70 1 -88 4 -99 18 -20 29 -341 43 -585 26z m445 -205 c15 -17 30 -20 105 -20 77 0 89 -2 100 -20 11 -17 24 -20 94 -20 68 0 84 -3 99 -20 10 -11 30 -20 45 -20 15 0 39 -9 53 -20 14 -11 32 -20 41 -20 8 0 20 -9 26 -20 6 -12 21 -20 36 -20 18 0 43 -18 85 -60 41 -41 67 -60 84 -60 14 0 30 -9 37 -20 7 -11 18 -20 25 -20 7 0 17 -9 23 -20 6 -12 21 -20 35 -20 14 0 29 -8 35 -20 6 -12 21 -20 35 -20 14 0 30 -9 37 -20 7 -11 18 -20 23 -20 12 0 185 -176 185 -187 0 -10 42 -53 53 -53 19 0 67 -60 67 -84 0 -15 8 -30 20 -36 15 -8 20 -21 20 -50 0 -21 6 -45 13 -52 24 -25 67 -94 67 -107 0 -7 9 -24 20 -38 11 -14 20 -34 20 -44 0 -10 9 -23 20 -29 14 -8 20 -21 20 -47 0 -22 6 -41 17 -48 11 -8 18 -32 21 -71 2 -38 10 -64 20 -71 24 -20 25 -519 1 -536 -11 -8 -18 -34 -22 -77 -12 -132 -20 -181 -28 -186 -5 -3 -9 -24 -9 -48 0 -30 -6 -48 -20 -61 -11 -10 -20 -28 -20 -41 0 -13 -9 -28 -20 -34 -13 -7 -20 -21 -20 -40 0 -19 -7 -33 -20 -40 -13 -7 -20 -21 -20 -40 0 -19 -7 -33 -20 -40 -13 -7 -20 -21 -20 -39 0 -16 -9 -40 -20 -54 -11 -14 -20 -34 -20 -45 0 -10 -9 -30 -19 -44 -11 -13 -21 -40 -23 -59 -2 -25 -8 -35 -23 -37 -11 -1 -29 -16 -40 -33 -11 -16 -37 -43 -57 -60 -21 -16 -38 -35 -38 -40 0 -6 -50 -60 -111 -120 -84 -82 -118 -109 -138 -109 -16 0 -41 -14 -64 -35 -21 -19 -49 -38 -62 -41 -14 -3 -25 -10 -25 -15 0 -5 -12 -15 -27 -21 -16 -7 -39 -20 -52 -30 -13 -10 -39 -18 -58 -18 -20 0 -46 -9 -60 -20 -17 -13 -41 -20 -69 -20 -33 0 -46 -5 -54 -20 -8 -16 -21 -20 -60 -20 -39 0 -52 -4 -60 -20 -10 -18 -21 -20 -133 -20 -110 0 -124 -2 -140 -20 -14 -16 -29 -20 -86 -20 -52 0 -72 -4 -78 -15 -14 -24 -341 -25 -358 -2 -7 9 -22 17 -34 17 -11 0 -26 9 -33 20 -10 15 -24 20 -59 20 -33 0 -51 6 -64 20 -13 14 -31 20 -61 20 -29 0 -49 6 -61 19 -10 10 -36 21 -57 24 -22 4 -44 13 -48 22 -5 8 -22 15 -38 15 -17 0 -34 8 -42 19 -8 11 -26 23 -42 27 -16 4 -32 17 -39 33 -11 26 -63 81 -76 81 -6 0 -53 37 -82 65 -9 8 -19 15 -24 15 -4 0 -24 17 -44 38 -20 20 -50 42 -66 47 -20 7 -31 18 -33 34 -4 29 -135 159 -168 167 -13 3 -25 16 -29 31 -3 13 -24 43 -45 66 -22 22 -40 49 -40 59 0 10 -18 44 -40 75 -33 48 -40 66 -40 105 0 37 -4 50 -20 58 -15 8 -19 20 -18 57 0 38 -4 50 -21 61 -17 11 -21 25 -21 63 0 38 -4 51 -20 59 -17 9 -20 21 -20 72 0 44 -5 67 -17 81 -27 29 -27 509 0 550 11 17 17 46 17 86 0 50 3 62 20 71 17 9 20 21 20 80 0 59 3 71 20 80 15 8 20 21 20 54 0 30 6 48 20 61 11 10 20 27 20 38 0 10 18 41 40 67 22 26 40 57 40 69 0 11 9 25 20 31 12 6 20 21 20 36 0 19 17 43 60 84 38 36 60 66 60 80 0 13 19 41 48 68 47 47 64 60 112 84 14 7 50 39 81 70 31 32 64 58 73 58 9 0 19 7 22 15 4 8 23 18 44 21 26 4 52 19 79 45 27 26 49 39 68 39 17 0 33 8 41 20 7 12 23 20 40 20 15 0 35 9 45 20 9 11 25 20 35 20 10 0 25 9 35 20 9 11 27 20 39 20 13 0 29 9 36 20 9 16 23 20 62 20 39 0 52 4 60 20 8 15 20 19 56 18 36 0 49 4 60 21 15 20 22 21 250 21 222 0 235 -1 251 -20z"/>
            <path d="M5655 6714 c-6 -8 -29 -18 -52 -21 -23 -3 -50 -14 -59 -24 -9 -11 -27 -19 -39 -19 -22 0 -60 -43 -82 -92 -7 -16 -17 -28 -23 -28 -5 0 -10 -7 -10 -15 0 -9 -9 -35 -20 -57 -26 -55 -29 -221 -4 -249 9 -10 18 -36 21 -58 3 -23 11 -41 18 -41 7 0 25 -18 40 -40 15 -22 32 -40 38 -40 5 0 27 -19 49 -41 36 -37 46 -41 84 -41 34 1 46 -3 54 -18 16 -29 131 -29 167 0 16 12 41 20 66 20 22 0 47 7 56 15 102 95 131 126 136 148 4 14 13 28 21 31 10 4 14 22 14 59 0 41 5 58 20 72 25 22 26 72 3 97 -10 12 -18 41 -21 78 -3 41 -10 64 -23 76 -11 9 -19 22 -19 27 0 20 -72 97 -90 97 -11 0 -24 9 -30 20 -8 16 -21 20 -60 20 -39 0 -52 4 -60 20 -9 18 -21 20 -98 20 -68 0 -89 -3 -97 -16z m171 -150 c6 -8 23 -14 38 -14 19 0 42 -15 77 -50 l50 -50 1 -109 1 -109 -51 -51 c-30 -30 -60 -51 -73 -51 -12 0 -27 -7 -34 -17 -16 -21 -124 -20 -141 2 -6 8 -21 15 -33 15 -11 0 -30 9 -41 20 -11 11 -24 20 -29 20 -12 0 -21 25 -21 57 0 14 -7 31 -16 37 -31 23 -26 156 6 156 4 0 10 17 14 38 5 30 15 42 50 65 24 15 54 27 67 27 14 0 30 9 37 21 11 17 19 20 50 14 20 -3 42 -13 48 -21z"/>
            <path d="M5660 5509 c-21 -11 -55 -19 -85 -19 -39 0 -53 -4 -63 -20 -7 -11 -19 -20 -27 -20 -8 0 -18 -6 -22 -14 -4 -7 -21 -17 -38 -23 -21 -7 -31 -18 -37 -42 -5 -17 -15 -34 -23 -37 -7 -3 -17 -23 -20 -45 -4 -22 -13 -46 -21 -53 -24 -24 -19 -234 6 -266 11 -14 20 -37 20 -51 0 -36 129 -169 165 -169 14 0 33 -9 42 -20 16 -18 30 -20 131 -20 99 0 117 3 139 20 14 11 41 20 59 20 23 0 37 6 44 19 5 11 22 21 37 23 21 2 32 12 45 39 9 20 30 49 46 65 25 25 30 40 36 109 14 141 3 267 -25 304 -11 13 -19 28 -19 33 0 17 -101 108 -119 108 -10 0 -26 9 -36 20 -13 14 -31 20 -64 20 -30 0 -55 7 -71 20 -30 24 -54 23 -100 -1z m133 -180 c7 -11 23 -19 38 -19 30 0 79 -61 79 -97 0 -12 6 -23 13 -25 18 -7 19 -128 1 -135 -8 -3 -14 -19 -14 -35 0 -27 -45 -88 -66 -88 -4 0 -13 -8 -20 -17 -10 -15 -31 -19 -107 -21 -85 -4 -96 -2 -109 16 -7 11 -27 22 -43 24 -26 3 -30 8 -33 35 -2 20 -11 37 -23 43 -27 15 -29 203 -2 218 9 5 21 25 27 43 8 26 17 35 37 37 15 2 35 12 44 22 26 28 160 27 178 -1z"/>
            <path d="M4426 5493 c-45 -3 -63 -9 -74 -24 -7 -10 -20 -19 -28 -19 -8 0 -17 -6 -20 -14 -3 -8 -17 -17 -31 -21 -32 -8 -78 -52 -88 -85 -4 -14 -14 -30 -22 -36 -10 -7 -15 -28 -15 -62 1 -41 -3 -54 -19 -62 -29 -16 -28 -124 2 -140 14 -8 20 -20 19 -38 -4 -61 0 -80 20 -85 14 -3 20 -14 20 -32 0 -32 49 -85 79 -85 12 0 26 -9 33 -20 7 -11 18 -20 25 -20 7 0 18 -9 25 -20 12 -19 24 -20 170 -20 147 0 158 1 168 20 6 12 21 20 36 20 33 0 164 131 164 164 0 13 9 31 20 41 18 16 20 31 20 145 0 99 -3 130 -14 139 -8 7 -18 26 -21 43 -7 30 -133 168 -153 168 -5 0 -20 9 -34 19 -27 21 -162 33 -282 24z m170 -164 c9 -10 28 -19 41 -19 23 0 73 -43 73 -62 0 -6 9 -21 20 -35 16 -21 20 -41 20 -108 0 -69 -3 -85 -20 -100 -11 -10 -20 -25 -20 -34 0 -9 -14 -30 -32 -46 -30 -29 -35 -30 -142 -33 l-111 -3 -48 48 c-91 90 -87 83 -87 166 0 66 3 78 20 87 11 6 20 20 20 31 0 34 51 89 82 89 17 0 31 7 37 19 9 15 22 19 70 19 46 0 64 -4 77 -19z"/>
            <path d="M6821 5476 c-6 -8 -31 -17 -55 -20 -24 -4 -52 -16 -61 -26 -10 -11 -26 -20 -36 -20 -40 0 -119 -103 -119 -155 0 -24 -6 -37 -20 -45 -18 -10 -20 -21 -20 -128 0 -105 2 -119 20 -135 11 -9 20 -29 20 -46 0 -20 6 -30 20 -34 15 -4 20 -14 20 -41 0 -34 2 -36 33 -36 25 0 40 -9 67 -40 26 -30 43 -40 65 -40 17 0 48 -9 70 -20 51 -26 124 -26 167 0 18 11 47 20 63 20 19 0 35 7 43 20 7 11 21 20 33 20 26 0 116 90 125 124 3 15 13 30 21 35 10 5 15 24 15 59 -1 41 3 54 19 62 26 14 26 74 -1 107 -14 19 -20 41 -20 81 0 50 -3 58 -36 89 -21 19 -40 48 -43 66 -6 27 -12 32 -39 35 -19 2 -36 11 -42 23 -8 15 -21 19 -60 19 -39 0 -52 4 -60 20 -9 18 -21 20 -94 20 -59 0 -87 -4 -95 -14z m171 -146 c7 -11 23 -20 36 -20 23 0 82 -49 82 -69 0 -14 46 -81 66 -95 24 -18 8 -78 -32 -120 -21 -21 -34 -45 -34 -61 0 -18 -7 -28 -24 -35 -13 -5 -26 -14 -28 -20 -2 -7 -26 -14 -53 -17 -28 -2 -60 -10 -73 -16 -18 -8 -28 -8 -42 1 -11 7 -30 12 -43 12 -35 0 -104 56 -112 90 -4 17 -14 34 -22 39 -11 6 -18 28 -21 64 -4 48 -2 56 17 66 15 8 21 21 21 44 0 43 53 117 84 117 12 0 29 9 39 20 13 16 29 20 72 20 44 0 57 -4 67 -20z"/>
            <path d="M5601 4293 c-34 -3 -64 -12 -79 -24 -14 -10 -31 -19 -39 -19 -7 0 -16 -6 -19 -14 -3 -8 -17 -17 -32 -21 -49 -12 -122 -107 -122 -159 0 -18 -9 -45 -20 -59 -16 -20 -20 -40 -20 -105 0 -66 3 -82 20 -97 14 -13 20 -31 20 -59 0 -38 6 -49 69 -114 38 -40 73 -72 78 -72 6 0 23 -10 38 -21 25 -20 39 -22 181 -22 145 -1 155 1 177 21 13 12 31 22 39 22 9 0 48 31 86 68 69 67 69 68 76 134 5 43 12 68 22 72 22 8 20 135 -3 151 -11 9 -18 32 -21 76 -4 60 -7 66 -52 109 -26 25 -59 51 -74 58 -14 6 -26 16 -26 22 0 5 -8 10 -19 10 -10 0 -29 8 -42 19 -26 20 -138 31 -238 24z m156 -182 c24 -4 51 -15 60 -23 10 -8 26 -18 36 -21 11 -4 17 -17 17 -36 0 -20 7 -34 20 -41 17 -9 20 -21 20 -85 0 -62 -4 -79 -20 -95 -11 -11 -20 -31 -20 -45 0 -15 -7 -28 -17 -32 -10 -4 -24 -15 -31 -25 -7 -10 -24 -18 -37 -18 -14 0 -29 -8 -34 -19 -9 -15 -22 -19 -71 -19 -49 0 -62 4 -71 19 -5 11 -20 19 -35 19 -36 0 -84 51 -84 88 0 21 -6 31 -20 35 -29 8 -30 161 -1 176 10 6 21 24 24 40 4 18 14 32 28 36 11 4 30 16 40 26 11 11 33 19 53 19 19 0 38 5 42 11 3 6 17 8 33 4 14 -3 45 -10 68 -14z"/>
            </g>
        </g>
    </g>

</svg>